PathFileType	4	(X/Y/Z)	Gait_media_markers.trc
DataRate	CameraRate	NumFrames	NumMarkers	Units	OrigDataRate	OrigDataStartFrame	OrigNumFrames
100	100	9	38	m	100	59	93
Frame#	Time	RASI			RPSI			LPSI			LASI			RTROCH			RTHI			RTHI2			RTHI3			RTHI4			RKNE			RKNEM			RTIB			RTIB2			RTIB3			RTIB4			RANK			RANKM			RHEE			RTOE			RTOEL			RTOEM			LTROCH			LTHI			LTHI2			LTHI3			LTHI4			LKNE			LKNEM			LTIB			LTIB2			LTIB3			LTIB4			LANK			LANKM			LHEE			LTOE			LTOEL			LTOEM
		X1	Y1	Z1	X2	Y2	Z2	X3	Y3	Z3	X4	Y4	Z4	X5	Y5	Z5	X6	Y6	Z6	X7	Y7	Z7	X8	Y8	Z8	X9	Y9	Z9	X10	Y10	Z10	X11	Y11	Z11	X12	Y12	Z12	X13	Y13	Z13	X14	Y14	Z14	X15	Y15	Z15	X16	Y16	Z16	X17	Y17	Z17	X18	Y18	Z18	X19	Y19	Z19	X20	Y20	Z20	X21	Y21	Z21	X22	Y22	Z22	X23	Y23	Z23	X24	Y24	Z24	X25	Y25	Z25	X26	Y26	Z26	X27	Y27	Z27	X28	Y28	Z28	X29	Y29	Z29	X30	Y30	Z30	X31	Y31	Z31	X32	Y32	Z32	X33	Y33	Z33	X34	Y34	Z34	X35	Y35	Z35	X36	Y36	Z36	X37	Y37	Z37	X38	Y38	Z38

59	0.580000	-0.324572	0.963257	-0.112191	-0.247840	1.006328	-0.283003	-0.152350	0.996014	-0.268308	-0.103190	0.961040	-0.078598	-0.387390	0.890280	-0.169158	-0.397355	0.769917	-0.125713	-0.376156	0.791092	-0.065784	-0.366270	0.718016	-0.028237	-0.384574	0.689884	-0.081668	-0.352337	0.559818	-0.017277	-0.244529	0.548503	-0.055513	-0.394528	0.431389	-0.002671	-0.348862	0.434057	0.042897	-0.357803	0.348220	0.060517	-0.403951	0.350815	0.012826	-0.389147	0.127008	0.038986	-0.309647	0.128375	0.051113	-0.368925	0.049763	-0.006107	-0.335761	0.129585	0.214091	-0.403246	0.096376	0.189013	-0.293241	0.085604	0.199432	-0.044357	0.893797	-0.153141	-0.053672	0.683698	-0.157420	-0.088344	0.676430	-0.106312	-0.102659	0.597888	-0.131206	-0.069236	0.602046	-0.185523	-0.091607	0.518954	-0.193009	-0.196956	0.544333	-0.222815	-0.072926	0.304116	-0.269071	-0.117429	0.300572	-0.222149	-0.126910	0.217826	-0.250768	-0.083694	0.225998	-0.295276	-0.113263	0.101414	-0.334278	-0.195517	0.123433	-0.328388	-0.147479	0.059448	-0.410720	-0.168440	0.055698	-0.172170	-0.108339	0.043057	-0.210041	-0.218122	0.049282	-0.202415
60	0.590000	-0.324629	0.962233	-0.099649	-0.249366	1.004521	-0.272289	-0.153737	0.994264	-0.258113	-0.103105	0.959125	-0.068611	-0.387690	0.888212	-0.156759	-0.398473	0.768895	-0.113808	-0.374163	0.789222	-0.054369	-0.364530	0.715633	-0.017864	-0.386814	0.688667	-0.070654	-0.352215	0.558970	-0.005614	-0.246627	0.545517	-0.048286	-0.394706	0.430378	0.012490	-0.348206	0.435425	0.056969	-0.355943	0.350132	0.078401	-0.403528	0.350576	0.031438	-0.385311	0.127520	0.066927	-0.305610	0.130615	0.078435	-0.364121	0.048584	0.025028	-0.329719	0.137652	0.241360	-0.396998	0.102035	0.218305	-0.285844	0.095453	0.226310	-0.044722	0.892103	-0.143671	-0.053677	0.682374	-0.150218	-0.088396	0.674981	-0.099004	-0.103250	0.596467	-0.124880	-0.069707	0.601125	-0.179009	-0.091943	0.517804	-0.187497	-0.197116	0.543709	-0.216893	-0.073052	0.304000	-0.266429	-0.117411	0.299810	-0.219454	-0.126937	0.217774	-0.249126	-0.083913	0.226041	-0.293413	-0.113671	0.101969	-0.333703	-0.195857	0.123850	-0.327519	-0.147665	0.059666	-0.410325	-0.168420	0.055495	-0.171991	-0.108472	0.043077	-0.209992	-0.218165	0.049198	-0.202185
61	0.600000	-0.324647	0.959613	-0.089486	-0.250768	1.002809	-0.261586	-0.154963	0.992446	-0.247745	-0.102985	0.957204	-0.058502	-0.388135	0.886293	-0.144599	-0.399794	0.767906	-0.101954	-0.372982	0.787738	-0.042912	-0.363813	0.713831	-0.006719	-0.387827	0.687255	-0.058760	-0.352961	0.558063	0.005695	-0.248998	0.543564	-0.039749	-0.394703	0.428807	0.026931	-0.348659	0.436444	0.070760	-0.354835	0.352063	0.095483	-0.402534	0.349780	0.048737	-0.380537	0.127935	0.092780	-0.301314	0.133795	0.103780	-0.358063	0.050355	0.051257	-0.324190	0.145367	0.266583	-0.390402	0.106559	0.245653	-0.279062	0.103836	0.252570	-0.045096	0.890478	-0.134148	-0.054095	0.681383	-0.142897	-0.088229	0.673070	-0.091763	-0.103192	0.595033	-0.118508	-0.069629	0.600176	-0.172799	-0.092139	0.516887	-0.182179	-0.197277	0.543416	-0.210907	-0.073429	0.304158	-0.263904	-0.117421	0.299758	-0.216762	-0.126978	0.217624	-0.247213	-0.084252	0.226625	-0.291701	-0.114049	0.102911	-0.333177	-0.196052	0.123962	-0.326069	-0.147989	0.059727	-0.409463	-0.168246	0.055342	-0.171723	-0.108596	0.043070	-0.209885	-0.217957	0.049210	-0.201743
62	0.610000	-0.324759	0.958689	-0.076898	-0.252056	1.000922	-0.250668	-0.156104	0.990522	-0.237219	-0.102941	0.955096	-0.048433	-0.388817	0.884509	-0.132774	-0.401473	0.766026	-0.088767	-0.373503	0.787541	-0.031571	-0.364159	0.712717	0.004853	-0.389224	0.685949	-0.047071	-0.354221	0.556902	0.017045	-0.250892	0.540680	-0.026421	-0.394381	0.426821	0.039938	-0.349763	0.437677	0.084358	-0.354482	0.353377	0.111295	-0.401308	0.348658	0.063955	-0.375718	0.128178	0.116162	-0.296871	0.137158	0.127509	-0.350433	0.047785	0.080042	-0.319272	0.151746	0.289925	-0.384263	0.109763	0.270765	-0.271918	0.112311	0.276431	-0.045512	0.888843	-0.124696	-0.053702	0.680128	-0.135853	-0.087920	0.671336	-0.084470	-0.102663	0.593368	-0.111914	-0.070028	0.599606	-0.166243	-0.091452	0.516725	-0.177273	-0.196885	0.542159	-0.204182	-0.073844	0.304756	-0.261004	-0.117464	0.299043	-0.213880	-0.127036	0.217215	-0.245149	-0.084560	0.227339	-0.289966	-0.114340	0.103980	-0.332533	-0.196396	0.124592	-0.325111	-0.149216	0.061683	-0.410072	-0.168283	0.055017	-0.171548	-0.108827	0.043215	-0.209928	-0.218097	0.049089	-0.201453
63	0.620000	-0.324994	0.956230	-0.066507	-0.253269	0.999021	-0.239706	-0.157511	0.988673	-0.226926	-0.103007	0.953326	-0.038279	-0.389718	0.883020	-0.121177	-0.402677	0.765003	-0.076948	-0.374365	0.786625	-0.019942	-0.365465	0.712291	0.017130	-0.391731	0.685135	-0.034796	-0.357160	0.555405	0.025796	-0.251843	0.541446	-0.016330	-0.394881	0.424216	0.050854	-0.351297	0.437793	0.097263	-0.354805	0.354207	0.126185	-0.399972	0.346937	0.077345	-0.371013	0.128340	0.137721	-0.292922	0.139977	0.149527	-0.343763	0.050451	0.101194	-0.314914	0.157177	0.310965	-0.378117	0.112107	0.293829	-0.265908	0.119736	0.297829	-0.045992	0.887361	-0.115205	-0.054275	0.679370	-0.128394	-0.085722	0.668326	-0.078100	-0.102358	0.592115	-0.105310	-0.070088	0.598800	-0.159988	-0.091674	0.516271	-0.171378	-0.197519	0.542076	-0.197740	-0.074018	0.304559	-0.258064	-0.117505	0.299192	-0.210908	-0.127054	0.217553	-0.243163	-0.084985	0.228122	-0.288159	-0.114765	0.105251	-0.332033	-0.196788	0.126120	-0.324408	-0.149293	0.063554	-0.409696	-0.168400	0.054689	-0.171453	-0.108882	0.043186	-0.209768	-0.218253	0.049024	-0.201157
64	0.630000	-0.325382	0.954673	-0.054959	-0.254566	0.997156	-0.228667	-0.158680	0.986836	-0.216361	-0.103189	0.951437	-0.028145	-0.390741	0.881467	-0.109846	-0.403548	0.763627	-0.065392	-0.376338	0.786064	-0.008116	-0.367301	0.711960	0.029630	-0.392612	0.684088	-0.022430	-0.357501	0.553273	0.038443	-0.251509	0.540009	0.002059	-0.394134	0.421663	0.061635	-0.352902	0.437617	0.109477	-0.355320	0.354377	0.140159	-0.398385	0.344923	0.089554	-0.366339	0.128414	0.157195	-0.288746	0.142059	0.169074	-0.336308	0.047620	0.126040	-0.310477	0.161249	0.330210	-0.372737	0.114163	0.313803	-0.260437	0.124943	0.317120	-0.046563	0.885879	-0.105635	-0.054074	0.678413	-0.121307	-0.086443	0.667652	-0.070179	-0.102059	0.591133	-0.098436	-0.070578	0.598490	-0.153035	-0.092342	0.515350	-0.165338	-0.198015	0.541705	-0.190628	-0.074397	0.305377	-0.255052	-0.117568	0.298773	-0.207587	-0.127101	0.218293	-0.241011	-0.085162	0.228938	-0.285742	-0.114972	0.106512	-0.331097	-0.196660	0.126748	-0.322653	-0.149450	0.065050	-0.408808	-0.168447	0.054294	-0.171257	-0.108927	0.043216	-0.209646	-0.218261	0.049141	-0.200584
65	0.640000	-0.326098	0.953366	-0.043376	-0.255850	0.995181	-0.217380	-0.159821	0.985010	-0.205587	-0.103354	0.949788	-0.017802	-0.391760	0.880066	-0.098518	-0.403995	0.762092	-0.054565	-0.378342	0.784307	0.004002	-0.369941	0.711483	0.042170	-0.392937	0.682796	-0.010271	-0.358284	0.551418	0.049031	-0.250772	0.540313	0.018838	-0.392749	0.419176	0.072928	-0.353646	0.436647	0.121612	-0.355338	0.353927	0.153553	-0.396031	0.342770	0.101519	-0.362033	0.128457	0.174398	-0.284573	0.143107	0.186292	-0.331001	0.047461	0.144620	-0.306233	0.163960	0.347363	-0.367741	0.116017	0.331666	-0.255733	0.127969	0.334390	-0.047061	0.884526	-0.096052	-0.054483	0.677701	-0.113803	-0.085873	0.665993	-0.062092	-0.102128	0.590277	-0.091317	-0.070793	0.597600	-0.146189	-0.094615	0.513117	-0.158618	-0.198571	0.541291	-0.183198	-0.075030	0.306525	-0.251681	-0.117719	0.299222	-0.204112	-0.127150	0.218351	-0.238412	-0.085591	0.230079	-0.283355	-0.115242	0.108002	-0.329931	-0.197268	0.128607	-0.321569	-0.149939	0.067666	-0.408386	-0.169209	0.053573	-0.171412	-0.108989	0.043255	-0.209505	-0.218027	0.048731	-0.200208
66	0.650000	-0.326825	0.951734	-0.031732	-0.257216	0.993370	-0.206200	-0.161160	0.983468	-0.194899	-0.103736	0.948170	-0.007390	-0.392643	0.878537	-0.087119	-0.404085	0.759850	-0.043736	-0.381343	0.782976	0.015618	-0.373023	0.710041	0.054021	-0.393711	0.681158	0.001179	-0.358471	0.549555	0.059369	-0.249825	0.541007	0.036103	-0.390925	0.417286	0.084878	-0.352791	0.435364	0.134465	-0.353981	0.352819	0.167038	-0.393528	0.341013	0.113483	-0.357850	0.127859	0.189654	-0.280372	0.142709	0.202183	-0.326239	0.047042	0.160437	-0.302431	0.165114	0.362655	-0.364403	0.116905	0.347026	-0.252256	0.129186	0.349985	-0.047648	0.883513	-0.086420	-0.054926	0.677114	-0.105849	-0.085605	0.664771	-0.054132	-0.102383	0.589339	-0.083859	-0.071602	0.597509	-0.139054	-0.095173	0.512836	-0.152150	-0.199257	0.541253	-0.175583	-0.075544	0.307278	-0.248281	-0.117932	0.298747	-0.200330	-0.127316	0.218962	-0.235796	-0.086088	0.231562	-0.280755	-0.115696	0.109684	-0.328700	-0.197785	0.130022	-0.320166	-0.150056	0.070216	-0.407283	-0.168779	0.053506	-0.171095	-0.109097	0.043307	-0.209295	-0.218243	0.048648	-0.199756
67	0.660000	-0.327689	0.951035	-0.018804	-0.258552	0.991614	-0.194601	-0.162425	0.982062	-0.183874	-0.104011	0.946820	0.003252	-0.393437	0.876948	-0.075442	-0.404115	0.757370	-0.033393	-0.384790	0.781189	0.026921	-0.376196	0.708369	0.065625	-0.393524	0.678721	0.011945	-0.357779	0.547945	0.070991	-0.248661	0.541985	0.053278	-0.388545	0.415981	0.098256	-0.350458	0.434133	0.148262	-0.351338	0.351618	0.180493	-0.390623	0.339489	0.127249	-0.353999	0.126590	0.202666	-0.276776	0.142251	0.215478	-0.321518	0.045848	0.173989	-0.299894	0.164613	0.376223	-0.361018	0.115945	0.359936	-0.249355	0.129065	0.363770	-0.048179	0.882664	-0.076599	-0.055492	0.676787	-0.097780	-0.085346	0.663908	-0.045877	-0.102342	0.588632	-0.076019	-0.072202	0.597084	-0.131250	-0.095834	0.512558	-0.145178	-0.200066	0.541360	-0.167406	-0.076146	0.308367	-0.244345	-0.118226	0.299194	-0.196279	-0.127449	0.219906	-0.233058	-0.086697	0.233309	-0.277980	-0.116050	0.112044	-0.327636	-0.198205	0.131748	-0.318225	-0.150143	0.072654	-0.405437	-0.168876	0.053060	-0.170961	-0.109204	0.043373	-0.209010	-0.218514	0.048503	-0.199469
